<?xml version="1.0" encoding="utf-8"?>
<svg version="1.2" baseProfile="tiny" id="Layer_1" xmlns="http://www.w3.org/2000/svg" xmlns:xlink="http://www.w3.org/1999/xlink"
	 x="0px" y="0px" viewBox="0 0 200.1 188.1" xml:space="preserve">
<g>
	<polygon fill="#8E9090" points="87.6,61.6 83,78.2 92.1,78.2 	"/>
	<path fill="#8E9090" d="M75.2,95.6l2-7.2c-1.9,1.6-3.2,2.9-3.4,3.7C73.2,93.8,74.2,94.9,75.2,95.6z"/>
	<path fill="#8E9090" d="M199.6,109.9l-38.7-4.4c0.6-1.6,1-3.1,1.4-4.8l37.8-0.6l-37.4-0.7c0.4-1.7,0.8-3.3,1-5.1l35.9-4.1
		l-35.8,2.9c0.2-1.8,0.4-3.6,0.6-5.3l33.8-7.3l-33.8,6.1c0-0.8,0-1.6,0-2.4c0-1.1,0-2.1-0.1-3.1l31.3-10.1l-31.4,9
		c-0.1-1.9-0.3-3.9-0.7-5.8l28.8-12.4l-29,11.4c-0.3-2-0.8-3.9-1.3-5.9l26-14.4l-26.3,13.6c-0.6-2-1.2-3.9-2-5.9l23.2-16.1
		l-23.7,15.2c-0.8-2-1.7-3.9-2.7-5.8l20.4-17.3L156,53c-1-1.9-2.2-3.8-3.4-5.6l17.8-18.3l-18.2,17.7c-1.3-1.8-2.7-3.6-4.1-5.2
		l15.1-19L147.4,41c-1.6-1.7-3.1-3.3-4.8-4.8l12.6-19.4l-13.1,19c-1.8-1.6-3.6-3-5.4-4.2l10.1-19.8L136,31.1c-1.9-1.3-3.9-2.6-6-3.7
		l7.9-19.9l-8.4,19.6c-2.1-1.1-4.2-2.1-6.4-2.9l5.7-19.9L122.3,24c-2.2-0.9-4.4-1.6-6.8-2.1L119.2,2L115,21.8
		c-2.3-0.6-4.7-1-7.1-1.3l1.7-19.9l-2.3,19.8c-2.3-0.2-4.8-0.4-7.2-0.4L99.7,0l-0.3,19.9c-2.4,0-4.9,0.1-7.2,0.4L89.9,0.6l1.7,19.9
		c-2.4,0.3-4.8,0.8-7.1,1.3L80.2,2l3.7,19.9c-2.3,0.6-4.6,1.3-6.8,2.1L70.8,4.3l5.7,19.9c-2.2,0.9-4.3,1.9-6.4,2.9L61.6,7.6
		l7.9,19.9c-2.1,1.1-4.1,2.3-6,3.7L52.7,11.8l10.1,19.8c-1.9,1.3-3.7,2.8-5.4,4.2l-13.1-19l12.6,19.6c-1.7,1.6-3.3,3.1-4.8,4.8
		L36.6,22.8l15.1,19.1c-1.4,1.7-2.9,3.4-4.1,5.2L29.3,29.4l17.8,18.3c-1.2,1.8-2.3,3.7-3.4,5.6l-21-16.7l20.6,17.4
		c-1,1.9-1.9,3.8-2.7,5.8L16.9,44.7l23.3,16.1c-0.8,1.9-1.4,3.9-2,5.8L11.9,53L38,67.6c-0.6,1.9-1,3.9-1.3,5.8l-29-11.6l28.8,12.6
		c-0.3,1.9-0.6,3.8-0.7,5.8l-31.6-9l31.4,10.1c0,1-0.1,2.1-0.1,3.1c0,0.8,0,1.6,0,2.4L1.8,80.7L35.7,88c0.1,1.8,0.2,3.6,0.6,5.3
		L0.4,90.4l36,4.1c0.2,1.7,0.7,3.3,1,5L0,100.1l37.8,0.7c0.4,1.6,0.9,3.2,1.4,4.8L0.4,110l39.2-3.2c0.6,1.4,1.1,2.9,1.8,4.3
		l-39.6,8.6l40.2-7.3c0.7,1.3,1.3,2.7,2.1,4L4.3,129.1L45,117.6c0.8,1.2,1.6,2.4,2.3,3.7L7.7,138.3l40.6-16c0.8,1.1,1.7,2.2,2.6,3.2
		l-38.9,21.6l39.9-20.4c0.9,1,1.8,2,2.7,2.9l-37.6,26l38.7-24.9c0.9,0.9,1.9,1.8,2.9,2.6l-35.7,30.2l36.8-29.2
		c1,0.8,1.9,1.6,2.9,2.2l-33.1,34.3l34.4-33.3c1,0.7,2,1.3,3,1.9l-11.4,14.4c-1.4,0.3-1.8,0.6-1.9,0.8l0,0v1.6l-16.8,21.1l16.8-19.8
		v7.8c0,0.6,0.7,1,1.7,1.4L44.6,183l11.1-16.1c1.8,0.8,4.4,1.4,7.1,2L52.9,188l10.6-19c0.3,0.1,0.7,0.1,1,0.2
		c4.2,0.8,10.6,1.6,19.7,2v1.1c0,3.2,2.7,5.9,5.9,5.9h2.7c0.7,3.6,3.8,6.2,7.4,6.2c3.7,0,6.8-2.7,7.4-6.2h2.7c3.2,0,5.9-2.7,5.9-5.9
		v-1.1c9.1-0.4,15.4-1.3,19.7-2c0.3,0,0.6-0.1,0.9-0.1l10.6,19l-9.8-19.1c2.7-0.6,5.3-1.2,7.1-1.9l11.1,16l-10.4-16.3
		c1.1-0.6,1.8-1,1.8-1.6v-7.6l16.6,19.6L147,156.3v-1.7l0,0c0-0.3-0.2-0.7-2.1-1l-11.4-14.3c1-0.7,2-1.2,3-1.9l34.4,33.3l-33.2-34.2
		c1-0.7,2-1.4,2.9-2.2l36.8,29.2l-35.6-30.2c1-0.8,1.9-1.7,2.9-2.6l38.6,24.9l-37.6-26c0.9-1,1.9-1.9,2.7-2.9l39.8,20.4l-38.9-21.6
		c0.9-1.1,1.8-2.1,2.6-3.2l40.4,16l-39.7-17.2c0.8-1.2,1.7-2.4,2.3-3.7l40.6,11.6l-39.6-12.8c0.8-1.3,1.4-2.7,2.1-4l40.1,7.3
		l-39.6-8.6c0.7-1.4,1.2-2.9,1.8-4.3L199.6,109.9z M68.1,140.2c1,0.6,2,1.1,3,1.7l-7.1,11c-1.3,0.1-2.6,0.2-3.7,0.3
		c-1.4,0.1-2.7,0.3-3.6,0.4L68.1,140.2z M72.7,142.6c1,0.4,2,0.9,3.1,1.3l-4.3,8.6c-2.1,0.1-4,0.2-5.8,0.3L72.7,142.6z M77.8,152.8
		v4.1c-1.4,0-2.9-0.1-4.2-0.2c-14.6-0.7-18.2-1.7-19.2-2C55.9,154.2,62.8,153.3,77.8,152.8z M146.2,165.3c-0.1,1.2-12.4,5.8-46,5.8
		c-33.7,0-46-4.7-46-5.8v-10c1.4,0.7,5.9,1.4,19.4,2.1c7.8,0.3,17,0.6,26.6,0.6s18.8-0.2,26.6-0.6c13.6-0.7,18-1.4,19.4-2.1V165.3z
		 M100.6,58.9h10.6l-3.8,13.8l6.9,26.2l9.6-41.9l1.8,5.1c1.1,3.3,4.8,12.7,7.6,14.9c1.9,1.4,3.3,1.3,3.3,1.3h0.4v1.6
		c0,24.7-13.3,33.8-23.2,42.2c-4.8,4.1-9.9,7.2-10,12v4.1c0.7,1,1.1,2.1,1.1,3.4v3.7h-1.7v-3.7c0-1.6-1.2-2.6-2.9-2.6
		c-1.6,0-2.9,1-2.9,2.6v3.7h-1.7v-3.7c0-1.2,0.4-2.4,1.1-3.3v-4.1c-0.4-4.1-4.8-7.2-9.4-11.6c-8.9-8.1-23.8-18.9-23.8-42.7v-1.6
		h16.3L87.6,50l11.3,42l5.2-19.1L100.6,58.9z M145.9,154.8c-1,0.4-4.7,1.3-19.2,2c-1.4,0.1-2.9,0.1-4.3,0.2v-4.1
		C137.4,153.3,144.3,154.2,145.9,154.8z M128.8,152.4l-4.3-8.4c1-0.4,2.1-0.9,3.1-1.3l7,10.1C132.7,152.6,130.8,152.4,128.8,152.4z
		 M143.2,153.6c-0.9-0.1-2-0.2-3.3-0.3c-1.1-0.1-2.4-0.2-3.9-0.3l-7.1-11c1-0.6,2-1.1,3-1.7L143.2,153.6z M121.6,144.2
		c-0.2,0.1-0.2,0.2-0.2,0.4c0.1,0.2,0.2,0.2,0.4,0.2c0.3-0.1,0.8-0.2,1.1-0.4l4.3,7.8c-1.7-0.1-3.4-0.1-5.2-0.2h-0.3v4.9
		c-1.8,0.1-3.6,0.1-5.4,0.1c0.1-4.1,1-8.2,2.6-12h-7.2c0.3-0.1,4.6-1.4,4.6-5.3l0.1-4c0.1-4.8,2.2-9.4,5.9-12.7
		c6.9-6,22.9-20,22.9-41c0-20.7-17-38.6-38.9-41.2c-0.6-2.4-2.8-3.9-6-3.9s-5.4,1.6-6,3.9C72.2,43.4,55.2,61.3,55.2,82
		c0,21.1,13,32.1,21.6,39.4c0.6,0.4,1.1,1,1.7,1.4c3.8,3.2,6,8,6.1,13l0.1,3.7c0,3.8,2.8,4.9,3.9,5.4h-7c1.6,3.8,2.4,7.9,2.6,12
		c-1.9,0-3.8-0.1-5.7-0.1V152h-0.3c-1.9,0.1-3.7,0.1-5.3,0.2l4.3-7.9c0.4,0.1,0.9,0.3,1.2,0.4h0.1c0.1,0,0.3-0.1,0.3-0.2
		c0.1-0.2,0-0.3-0.2-0.4c-25.3-9-42.3-33.1-42.3-60c0-35.1,28.6-63.7,63.7-63.7s63.7,28.6,63.7,63.7
		C163.8,111.1,146.8,135.2,121.6,144.2z"/>
	<path fill="#8E9090" d="M92.2,78.8l-4.1,2.3c-2.3,1.3-4.8,2.8-7,4.3l-3.8,14.1l-1.4-0.4c-2.2-0.7-6.1-3.1-5.1-7.9
		c0.2-0.8,1.3-3.3,7.8-7.9l0.6-2.1H65.2c0.6,21.3,13.7,32.2,23.2,40.1c5.6,4.6,9.9,8.2,9.9,12.6v3.2c0.6-0.2,1.1-0.2,1.8-0.2
		c0.7,0,1.2,0.1,1.8,0.2v-3.2c0-4.4,4.3-7.9,9.9-12.3c9.7-7.8,22.8-18.2,23.3-40.4c-1-0.2-2.4-0.7-4-1.9c-2.6-2-5.1-7.4-6.8-11.4
		l-10,44l-8.7-33.2l-6.8,24.9L92.2,78.8z"/>
	<polygon fill="#8E9090" points="107,62 104.4,62 105.7,66.7 	"/>
</g>
<g>
	<path fill="#8E9090" d="M56.7,162.6c0,0.3-0.3,1.7-0.3,2c0,0.1,0,0.1,0,0.2c0,0.1,0.1,0.3,0.2,0.3c0.1,0,0.1,0,0.2,0.1
		c0,0,0.1,0,0.1,0.1c0,0.1,0,0.1,0,0.2c0,0.1,0,0.1,0,0.1c-0.1,0-0.3-0.1-0.7-0.3c-0.4-0.2-0.5-0.2-0.6-0.2c0,0,0-0.1,0-0.1
		c0-0.1,0-0.1,0-0.2c0-0.1,0-0.1,0-0.1c0.1,0,0.1,0,0.2,0.1c0.1,0.1,0.2,0,0.3-0.3c0.1-0.2,0.4-2,0.6-2.9c0.2-1.2,0.3-1.8,0.5-2.8
		c0-0.1,0-0.3,0-0.3c0,0,0-0.1,0-0.1c0,0,0-0.1,0.1-0.1c0.2,0,0.5-0.3,0.5-0.3c0,0,0.1-0.1,0.1-0.1c0,0,0.1,0.1,0.1,0.2
		c0.1,0.6,0.5,3.2,0.6,4c0.1,1,0.5,3.2,0.6,3.5c0.1,0.4,0.2,0.5,0.4,0.6c0.1,0,0.1,0,0.2,0.1c0,0,0,0,0,0.1c0,0.1,0,0.1,0,0.2
		c0,0.1,0,0.1-0.1,0.1c-0.1,0-0.2-0.1-0.8-0.3c-0.5-0.1-0.7-0.2-0.8-0.2c0,0-0.1-0.1-0.1-0.1c0-0.1,0-0.1,0-0.2c0-0.1,0-0.1,0-0.1
		c0.1,0,0.1,0,0.1,0c0.2,0,0.2,0,0.2-0.3c0-0.4-0.3-1.9-0.3-2.3C57.4,162.8,57.2,162.7,56.7,162.6z M57.9,162.4
		c-0.1-0.4-0.4-3.1-0.5-3.3c0-0.1,0-0.2-0.1-0.2c0,0-0.1,0-0.1,0.1c0,0.1-0.5,2.8-0.5,3.1C57.2,162.2,57.4,162.3,57.9,162.4z"/>
	<path fill="#8E9090" d="M62.2,161.5c0-0.3,0-2,0-2.2c0-0.3-0.1-0.3-0.2-0.3c-0.1,0-0.2,0-0.3,0c0,0,0,0,0-0.1c0-0.1,0-0.2,0-0.3
		c0,0,0-0.1,0.1-0.1c0.2,0,0.5,0.1,0.9,0.1c0.3,0,0.6,0,0.9,0.1c0.8,0.1,1.4,0.2,2,1.1c0.4,0.7,0.7,1.8,0.7,3.4
		c0,1.6-0.2,2.6-0.6,3.4c-0.6,1.1-1.5,0.8-1.9,0.7c-0.2,0-0.8-0.2-1.1-0.3c-0.5-0.1-0.7-0.1-0.8-0.2c0,0,0,0,0-0.1
		c0-0.1,0-0.1,0-0.2c0,0,0-0.1,0,0c0.1,0,0.2,0,0.3,0.1c0.1,0,0.2,0,0.2-0.2c0-0.2,0-2.9,0-3.9C62.2,162.1,62.2,161.9,62.2,161.5z
		 M63,162.9c0,0.2,0,2.4,0,3.1c0,0.2,0,0.4,0.1,0.6c0.1,0.2,0.3,0.3,0.5,0.4c0.5,0.1,0.9-0.1,1.2-0.9c0.2-0.6,0.4-1.7,0.4-2.9
		c0-1.1-0.2-2.3-0.5-2.9c-0.3-0.7-0.8-1.1-1.3-1.2c-0.1,0-0.3,0-0.4,0.1c-0.1,0.1-0.1,0.2-0.1,0.5c0,0.5,0,2.1,0,2.3
		C63,162.3,63,162.5,63,162.9z"/>
	<path fill="#8E9090" d="M69.3,164.9c0,0.3-0.3,2.2-0.4,2.5c0,0.1,0,0.2,0,0.2c0,0.1,0.1,0.3,0.2,0.3c0.1,0,0.2,0,0.3,0
		c0,0,0.1,0,0.1,0.1c0,0.1,0,0.1,0,0.2c0,0.1,0,0.1,0,0.1c-0.1,0-0.3-0.1-0.7-0.1c-0.4-0.1-0.6-0.1-0.7-0.1c0,0,0-0.1,0-0.1
		c0-0.1,0-0.1,0-0.2c0-0.1,0-0.1,0-0.1c0.1,0,0.1,0,0.2,0c0.2,0,0.3-0.1,0.4-0.4c0.1-0.2,0.5-2.5,0.7-3.7c0.2-1.5,0.4-2.3,0.6-3.6
		c0-0.1,0-0.3,0-0.4c0,0,0-0.1,0-0.1c0,0,0-0.1,0.1-0.1c0.2-0.1,0.5-0.4,0.6-0.5c0-0.1,0.1-0.1,0.1-0.1c0,0,0.1,0.1,0.1,0.2
		c0.1,0.6,0.6,3.6,0.7,4.6c0.1,1.2,0.5,3.8,0.6,4.1c0.1,0.4,0.3,0.5,0.4,0.5c0.1,0,0.1,0,0.2,0c0,0,0,0,0,0.1c0,0.1,0,0.1,0,0.2
		c0,0.1,0,0.1-0.1,0.1c-0.1,0-0.2,0-0.9-0.1c-0.5-0.1-0.7-0.1-0.8-0.1c0,0-0.1-0.1-0.1-0.1c0-0.1,0-0.1,0-0.2c0-0.1,0-0.1,0-0.1
		c0.1,0,0.1,0,0.2,0c0.2,0,0.2-0.1,0.2-0.4c0-0.4-0.3-2.1-0.3-2.7C70.1,165,69.9,165,69.3,164.9z M70.6,164.5
		c-0.1-0.4-0.5-3.7-0.5-4c0-0.2,0-0.2-0.1-0.2c0,0-0.1,0-0.1,0.2c0,0.2-0.6,3.6-0.6,3.9C69.9,164.4,70.1,164.4,70.6,164.5z"/>
	<path fill="#8E9090" d="M78.8,164.3c0-0.5,0-4,0-4.1c0,0,0,0,0,0c0,0.2-0.8,4.4-0.9,4.8c-0.1,0.5-0.7,3.6-0.7,3.7
		c0,0.1-0.1,0.2-0.1,0.2c0,0-0.1-0.1-0.1-0.2c0-0.1-0.7-4.4-0.8-4.6c-0.1-0.7-0.6-3.9-0.7-4.1c0,0.2-0.1,3.8-0.1,3.9
		c0,0.2,0,2.8,0,3.6c0,0.6,0.1,1,0.3,1c0.1,0,0.2,0,0.3,0c0,0,0,0,0,0.1c0,0.1,0,0.1,0,0.2c0,0,0,0.1-0.1,0.1c-0.1,0-0.2,0-0.7-0.1
		c-0.5,0-0.7,0-0.8,0c0,0,0,0,0-0.1c0-0.1,0-0.1,0-0.2c0,0,0-0.1,0-0.1c0.1,0,0.2,0,0.3,0c0.2,0,0.3-0.4,0.3-0.8
		c0.1-0.8,0.1-4.6,0.1-4.9c0-1,0-1.6,0-2.4c0-0.4,0-0.7-0.3-0.7c-0.1,0-0.2,0-0.3,0c0,0,0,0,0-0.1c0-0.1,0-0.2,0-0.3
		c0,0,0-0.1,0-0.1c0.1,0,0.2,0,0.8,0.1c0.3,0,0.4,0,0.5,0c0.1,0,0.1,0,0.1,0.2c0.2,1,1,6.1,1.1,7.3c0.1-0.2,0.5-2.8,0.7-3.7
		c0.1-0.6,0.7-3.4,0.7-3.6c0-0.1,0.1-0.1,0.2-0.1c0.9,0,1.1,0,1.1,0c0,0,0,0,0,0.1c0,0.1,0,0.1,0,0.2c0,0.1,0,0.1,0,0.1
		c-0.1,0-0.2,0-0.3,0c-0.2,0-0.2,0.2-0.2,0.4c0,0.3,0,3.2,0,3.6c0,0.4,0,0.7,0,1.1c0,0.9,0,3,0,3.2c0,0.4,0.1,0.6,0.2,0.6
		c0.1,0,0.2,0,0.3,0c0,0,0,0,0,0.1c0,0.1,0,0.1,0,0.2c0,0.1,0,0.1,0,0.1c-0.1,0-0.3,0-0.9-0.1c-0.6,0-0.8,0-0.9,0c0,0,0,0,0-0.1
		c0-0.1,0-0.1,0-0.2c0-0.1,0-0.1,0-0.1c0.1,0,0.2,0,0.4,0c0.1,0,0.2,0,0.2-0.4c0-0.1,0-2,0-3.2C78.8,164.8,78.8,164.6,78.8,164.3z"
		/>
	<path fill="#8E9090" d="M85.6,160.6c-0.1-0.3-0.1-0.4-0.2-0.4c-0.1,0-0.1,0-0.2,0c0,0,0,0,0-0.1c0-0.1,0-0.2,0-0.3c0,0,0-0.1,0-0.1
		c0,0,0.2,0,0.7,0c0.4,0,0.7,0,0.7,0c0,0,0,0,0,0.1c0,0.1,0,0.1,0,0.3c0,0.1,0,0.1-0.1,0.1c0,0-0.1,0-0.1,0c-0.1,0-0.2,0.1-0.1,0.4
		c0.3,2.2,0.5,4.3,0.8,6.8c0,0,0,0,0,0c0-0.3,0.9-5.9,0.9-6.4c0-0.2,0-0.5-0.1-0.6c0-0.1-0.1-0.2-0.2-0.2c0,0-0.1,0-0.1,0
		c0,0,0,0,0-0.1c0-0.1,0-0.2,0-0.3c0,0,0-0.1,0-0.1c0,0,0.3,0,0.8,0c0.5,0,0.7,0,0.8,0c0,0,0,0,0,0.1c0,0.1,0,0.1,0,0.2
		c0,0.1,0,0.1,0,0.1c-0.1,0-0.1,0-0.2,0c-0.1,0-0.2,0.2-0.1,0.4c0.3,2.2,0.5,4.3,0.8,6.8c0,0,0,0,0,0c0.2-1.2,0.9-6.3,0.9-6.9
		c0-0.2-0.1-0.3-0.2-0.3c-0.1,0-0.1,0-0.2,0c0,0,0,0,0-0.1c0-0.1,0-0.2,0-0.2c0,0,0-0.1,0-0.1c0.1,0,0.3,0,0.6,0c0.3,0,0.5,0,0.5,0
		c0,0,0,0,0,0c0,0.1,0,0.2,0,0.3c0,0.1,0,0.1,0,0.1c0,0-0.1,0-0.1,0c-0.1,0-0.2,0.1-0.3,0.4c-0.1,0.3-1.3,8.3-1.4,8.8
		c0,0.1-0.1,0.2-0.2,0.2c-0.1,0-0.1-0.1-0.1-0.2c-0.4-1.9-0.6-4.4-1-7.4c0,0,0,0,0,0c-0.1,0.4-1.2,7.3-1.2,7.4
		c0,0.1-0.1,0.2-0.2,0.2c-0.1,0-0.1,0-0.1-0.1C86.4,167.2,86.1,163.6,85.6,160.6z"/>
	<path fill="#8E9090" d="M96.9,160.6c0.4,0.7,0.8,2.1,0.8,4.3c0,1.2-0.1,2.4-0.4,3.2c-0.4,1-0.9,1.5-1.8,1.5c-0.4,0-0.9-0.1-1.3-0.6
		c-0.4-0.5-0.8-1.9-0.8-4.1c0-0.9,0.1-2.5,0.5-3.7c0.5-1.4,1.1-1.4,1.6-1.4C96,159.7,96.5,159.8,96.9,160.6z M94.7,160.8
		c-0.4,0.7-0.5,2.3-0.5,3.5c0,4.1,0.9,4.9,1.4,4.9c1.2,0,1.4-2.9,1.4-4.2c0-3.4-0.9-4.8-1.4-4.8C95.4,160.2,95.1,160,94.7,160.8z"/>
	<path fill="#8E9090" d="M103.8,160.5c0.4,0.7,0.8,2.1,0.8,4.3c0,1.2-0.1,2.4-0.4,3.2c-0.4,1-0.9,1.5-1.8,1.5
		c-0.3,0-0.9-0.1-1.3-0.6c-0.4-0.5-0.8-1.9-0.8-4.1c0-0.9,0.1-2.5,0.5-3.7c0.5-1.4,1.1-1.4,1.6-1.4
		C102.9,159.7,103.3,159.8,103.8,160.5z M101.6,160.8c-0.4,0.7-0.5,2.3-0.5,3.5c0,4.1,0.9,4.9,1.4,4.9c1.2,0,1.4-2.9,1.4-4.2
		c0-3.4-0.9-4.8-1.4-4.8C102.3,160.2,102,160,101.6,160.8z"/>
	<path fill="#8E9090" d="M107.6,163c0-0.4,0-2.3,0-2.5c0-0.3-0.1-0.3-0.2-0.3c-0.1,0-0.2,0-0.3,0c0,0,0,0,0-0.1c0-0.1,0-0.2,0-0.3
		c0,0,0-0.1,0.1-0.1c0.2,0,0.5,0,0.9,0c0.3,0,0.6,0,0.9,0c0.8,0,1.4,0,1.9,1c0.4,0.7,0.7,1.9,0.7,3.7c0,1.8-0.2,2.9-0.5,3.8
		c-0.6,1.3-1.5,1.2-1.9,1.2c-0.2,0-0.8,0-1.1,0c-0.5,0-0.7,0-0.8,0c0,0,0,0,0-0.1c0-0.1,0-0.1,0-0.2c0,0,0-0.1,0-0.1
		c0.1,0,0.2,0,0.3,0c0.1,0,0.2-0.1,0.2-0.3c0-0.2,0-3.4,0-4.6C107.6,163.7,107.6,163.5,107.6,163z M108.3,164.5c0,0.2,0,2.8,0,3.6
		c0,0.2,0,0.4,0.1,0.7c0.1,0.2,0.3,0.3,0.5,0.3c0.5,0,0.9-0.3,1.2-1.2c0.2-0.7,0.4-1.9,0.4-3.4c0-1.2-0.2-2.5-0.5-3.2
		c-0.3-0.8-0.8-1.1-1.3-1.1c-0.1,0-0.3,0-0.4,0.1c-0.1,0.1-0.1,0.3-0.1,0.5c0,0.5,0,2.4,0,2.7C108.3,163.8,108.3,164.1,108.3,164.5z
		"/>
	<path fill="#8E9090" d="M113.8,160.5c-0.1-0.3-0.2-0.4-0.2-0.4c-0.1,0-0.1,0-0.2,0c0,0,0,0,0-0.1c0-0.1,0-0.2,0-0.3
		c0,0,0-0.1,0-0.1c0,0,0.2,0,0.7,0c0.4,0,0.7,0,0.7-0.1c0,0,0,0,0,0.1c0,0.1,0,0.1,0,0.3c0,0.1,0,0.1-0.1,0.1c0,0-0.1,0-0.1,0
		c-0.1,0-0.2,0.2-0.1,0.4c0.4,2.2,0.6,4.2,0.9,6.7c0,0,0,0,0,0c0-0.3,0.8-5.8,0.8-6.3c0-0.2-0.1-0.5-0.1-0.6c0-0.1-0.1-0.2-0.2-0.2
		c0,0-0.1,0-0.1,0c0,0,0,0,0-0.1c0-0.1,0-0.2,0-0.3c0,0,0-0.1,0-0.1c0,0,0.3,0,0.8,0c0.5,0,0.7-0.1,0.8-0.1c0,0,0,0,0,0.1
		c0,0.1,0,0.1,0,0.2c0,0.1,0,0.1,0,0.1c-0.1,0-0.1,0-0.2,0c-0.1,0-0.2,0.2-0.1,0.4c0.4,2.2,0.6,4.2,0.9,6.7c0,0,0,0,0,0
		c0.2-1.2,0.8-6.2,0.8-6.9c0-0.2-0.1-0.3-0.2-0.3c-0.1,0-0.1,0-0.2,0c0,0,0,0,0-0.1c0-0.1,0-0.1,0-0.2c0,0,0-0.1,0-0.1
		c0.1,0,0.3,0,0.6,0c0.3,0,0.5-0.1,0.5-0.1c0,0,0,0,0,0c0,0.1,0,0.2,0,0.3c0,0.1,0,0.1,0,0.1c0,0-0.1,0-0.1,0
		c-0.1,0-0.2,0.1-0.3,0.4c-0.1,0.3-1.2,8.3-1.3,8.7c0,0.1-0.1,0.2-0.2,0.2c-0.1,0-0.1-0.1-0.1-0.2c-0.4-1.8-0.7-4.3-1.1-7.2
		c0,0,0,0,0,0c0,0.4-1,7.2-1,7.3c0,0.1-0.1,0.2-0.2,0.2c-0.1,0-0.1,0-0.1-0.1C114.6,167,114.3,163.5,113.8,160.5z"/>
	<path fill="#8E9090" d="M125.1,159.9c0.4,0.7,0.8,2.1,0.8,4.1c0,1.1-0.1,2.3-0.4,3.2c-0.4,1-0.9,1.6-1.7,1.6
		c-0.3,0-0.8-0.1-1.3-0.5c-0.4-0.4-0.9-1.8-0.9-4c0-0.9,0.1-2.4,0.5-3.6c0.5-1.4,1.1-1.5,1.6-1.5
		C124.2,159.1,124.6,159.1,125.1,159.9z M122.9,160.2c-0.4,0.7-0.5,2.2-0.5,3.5c0.1,4,1,4.7,1.5,4.7c1.2-0.1,1.3-2.9,1.3-4.2
		c0-3.3-0.9-4.7-1.5-4.6C123.6,159.5,123.3,159.4,122.9,160.2z"/>
	<path fill="#8E9090" d="M129.6,164.9c0,0.9,0,2.3,0,2.5c0,0.2,0.1,0.4,0.2,0.4c0.1,0,0.2,0,0.3,0c0,0,0,0,0,0.1c0,0.1,0,0.1,0,0.2
		c0,0.1,0,0.1-0.1,0.1c-0.1,0-0.2,0-0.8,0.1c-0.6,0.1-0.7,0.1-0.8,0.1c0,0,0,0,0-0.1c0-0.1,0-0.1,0-0.2c0-0.1,0-0.1,0-0.1
		c0.1,0,0.1,0,0.2,0c0.1,0,0.2-0.1,0.2-0.4c0-1.1,0-2.5,0-3.9c0-1.6,0-2.4,0-3.7c0-0.4-0.1-0.6-0.2-0.6c-0.1,0-0.1,0-0.2,0
		c0,0,0,0,0-0.1c0-0.1,0-0.2,0-0.3c0,0,0-0.1,0-0.1c0,0,0.2,0,0.8,0c0.3,0,0.9-0.1,1-0.1c0.5,0,0.8,0.2,1.1,0.6
		c0.2,0.4,0.3,0.9,0.3,1.4c0,1.7-0.4,2.6-1.1,2.9c0,0,0,0,0,0.1c0.2,0.1,0.3,0.4,0.4,0.6c0.1,0.2,0.4,1.5,0.5,1.6
		c0,0.1,0.4,1.2,0.5,1.3c0.1,0.2,0.3,0.2,0.4,0.1c0,0,0,0,0,0.1c0,0.1,0,0.1,0,0.2c0,0.1,0,0.1,0,0.1c0,0-0.2,0-0.6,0
		c-0.2,0-0.4,0.1-0.5,0.1c-0.1-0.1-0.2-0.3-0.3-0.5c-0.1-0.3-0.3-1.2-0.4-1.4c-0.1-0.2-0.2-0.8-0.3-1.2c-0.1-0.5-0.3-0.9-0.5-0.8
		c0,0-0.1,0-0.2,0C129.6,164.4,129.6,164.6,129.6,164.9z M129.7,163.6c0.1,0,0.2,0,0.2,0c0.9-0.1,1.1-2,1.1-2.6
		c0-0.6-0.1-1.2-0.3-1.4c-0.2-0.4-0.5-0.5-0.8-0.4c-0.1,0-0.2,0-0.2,0.1c0,0.1-0.1,0.2-0.1,0.3C129.6,161,129.6,161.9,129.7,163.6z"
		/>
	<path fill="#8E9090" d="M135.9,158.8c-0.1,0-0.1,0-0.2,0c-0.2,0-0.6,0.1-0.9,0.2c-0.2,0.2-0.4,1-0.5,1.4c0,0.1,0,0.1-0.1,0.1
		c0,0-0.1,0-0.1-0.1c0,0,0-0.1,0-0.1c0.1-1,0.2-1.4,0.3-2.1c0-0.1,0-0.2,0.1-0.2c0,0,0.1,0,0.1,0.1c0.1,0.2,0.2,0.2,0.4,0.2
		c0.3,0,0.6,0,1.1,0c0.1,0,0.2,0,0.3,0c0.6-0.1,0.9-0.1,1.1-0.2c0.1,0,0.3-0.2,0.4-0.3c0-0.1,0.1-0.1,0.1-0.1c0,0,0,0,0.1,0.1
		c0,0.2,0.1,1.5,0.2,2.1c0,0.1,0,0.1,0,0.1c0,0-0.1,0.1-0.1,0.1c0,0,0,0-0.1-0.1c-0.1-0.3-0.3-1.1-0.5-1.3c-0.1-0.2-0.7-0.1-0.9-0.1
		c-0.1,0-0.1,0-0.2,0c0,2.3,0,4.4,0,6.9c0,0.9,0.1,1.1,0.2,1c0.1,0,0.2,0,0.3-0.1c0,0,0,0,0,0.1c0,0.1,0,0.1,0,0.2
		c0,0.1,0,0.1-0.1,0.1c-0.1,0-0.2,0-0.9,0.1c-0.6,0.1-0.8,0.2-0.9,0.2c0,0,0,0,0-0.1c0-0.1,0-0.1,0-0.2c0-0.1,0-0.1,0-0.1
		c0.1,0,0.2,0,0.3-0.1c0.1,0,0.2-0.2,0.2-0.3c0-0.3,0-4.3,0-4.6C135.9,160.6,135.9,159.9,135.9,158.8z"/>
	<path fill="#8E9090" d="M141.8,161.9c-0.1,0-0.1,0.1-0.1,0.2c0,0.2,0,0.3,0,0.5c0,0.4,0,1.8,0,2.5c0,0.2,0.1,0.3,0.2,0.3
		c0.1,0,0.1,0,0.2-0.1c0,0,0.1,0,0.1,0c0,0.1,0,0.1,0,0.2c0,0.1,0,0.1-0.1,0.1c-0.1,0-0.3,0.1-0.8,0.2c-0.6,0.2-0.7,0.2-0.8,0.3
		c0,0-0.1,0-0.1-0.1c0-0.1,0-0.1,0-0.2c0-0.1,0-0.1,0.1-0.1c0.1,0,0.2,0,0.3-0.1c0.1,0,0.2-0.3,0.2-0.5c0-0.5,0-1.9,0-2.7
		c0-0.6,0-1,0-1.6c0-0.4,0-1.9,0-2c0-0.6,0-0.7-0.2-0.7c-0.1,0-0.2,0-0.3,0c0,0-0.1,0-0.1-0.1c0-0.1,0-0.1,0-0.2c0,0,0-0.1,0.1-0.1
		c0.1,0,0.3,0,0.8-0.1c0.5-0.1,0.7-0.1,0.8-0.1c0,0,0.1,0,0.1,0.1c0,0.1,0,0.1,0,0.2c0,0.1,0,0.1-0.1,0.1c-0.1,0-0.1,0-0.2,0
		c-0.2,0-0.2,0.2-0.2,0.6c0,0.2,0,1.7,0,2c0,0.2,0,0.3,0,0.5c0,0.1,0,0.2,0.1,0.2c0.7-0.2,1.1-0.2,1.9-0.4c0.1,0,0.1-0.1,0.1-0.2
		c0-0.1,0-0.2,0-0.4c0-0.4,0-2,0-2.1c0-0.3,0-0.5-0.2-0.5c-0.1,0-0.2,0-0.3,0c0,0,0,0,0-0.1c0-0.1,0-0.1,0-0.2c0,0,0-0.1,0-0.1
		c0.1,0,0.3,0,0.8-0.1c0.4-0.1,0.6-0.1,0.7-0.1c0.1,0,0.1,0,0.1,0.1c0,0.1,0,0.1,0,0.2c0,0.1,0,0.1-0.1,0.1c-0.1,0-0.1,0-0.2,0
		c-0.2,0-0.2,0.2-0.2,0.5c0,0.1,0,1.6,0,2c0,0.5,0,0.7,0,1.2c0,0.5,0,2.1,0,2.6c0,0.4,0.1,0.5,0.2,0.4c0.1,0,0.1,0,0.2-0.1
		c0,0,0,0,0,0c0,0.1,0,0.1,0,0.2c0,0.1,0,0.1-0.1,0.1c-0.1,0-0.3,0.1-0.7,0.3c-0.5,0.2-0.7,0.3-0.9,0.3c0,0,0,0,0-0.1
		c0-0.1,0-0.1,0-0.2c0,0,0-0.1,0-0.1c0.1,0,0.2-0.1,0.3-0.1c0.1,0,0.1-0.2,0.1-0.5c0-0.5,0-2.3,0-2.5c0-0.1,0-0.2,0-0.3
		c0-0.1,0-0.1-0.1-0.1C142.9,161.7,142.5,161.7,141.8,161.9z"/>
</g>
<ellipse fill="none" cx="100.1" cy="83.3" rx="50.2" ry="49.2"/>
<text transform="matrix(-0.8156 -0.6033 0.5947 -0.804 72.3037 124.3899)" fill="#8E9090" font-family="'ACaslonPro-Semibold'" font-size="11.0195px">S</text>
<text transform="matrix(-0.6625 -0.7683 0.7573 -0.653 64.8106 118.6331)" fill="#8E9090" font-family="'ACaslonPro-Semibold'" font-size="11.0195px">H</text>
<text transform="matrix(-0.4546 -0.9069 0.894 -0.4481 56.8262 108.6575)" fill="#8E9090" font-family="'ACaslonPro-Semibold'" font-size="11.0195px">A</text>
<text transform="matrix(-0.1988 -0.9948 0.9806 -0.196 51.8809 98.263)" fill="#8E9090" font-family="'ACaslonPro-Semibold'" font-size="11.0195px">M</text>
<text transform="matrix(6.268121e-002 -1.0125 0.9981 6.178823e-002 49.71 84.1194)" fill="#8E9090" font-family="'ACaslonPro-Semibold'" font-size="11.0195px">E</text>
<text transform="matrix(0.2834 -0.9741 0.9602 0.2793 50.7227 73.4153)" fill="#8E9090" font-family="'ACaslonPro-Semibold'" font-size="11.0195px">L</text>
<text transform="matrix(0.4867 -0.8901 0.8774 0.4798 53.9287 63.5091)" fill="#8E9090" font-family="'ACaslonPro-Semibold'" font-size="11.0195px">E</text>
<text transform="matrix(0.6582 -0.772 0.761 0.6488 59.4971 54.1829)" fill="#8E9090" font-family="'ACaslonPro-Semibold'" font-size="11.0195px">S</text>
<text transform="matrix(0.7917 -0.6343 0.6253 0.7804 65.875 47.1848)" fill="#8E9090" font-family="'ACaslonPro-Semibold'" font-size="11.0195px">S</text>
<text transform="matrix(0.8784 -0.5075 0.5003 0.8659 73.5596 41.5393)" fill="#8E9090" font-family="'ACaslonPro-Semibold'" font-size="11.0195px"> </text>
<text transform="matrix(0.9447 -0.3696 0.3644 0.9313 78.5615 38.7766)" fill="#8E9090" font-family="'ACaslonPro-Semibold'" font-size="11.0195px">S</text>
<text transform="matrix(0.9995 -0.1736 0.1711 0.9853 87.4502 35.5745)" fill="#8E9090" font-family="'ACaslonPro-Semibold'" font-size="11.0195px">E</text>
<text transform="matrix(1.0138 3.497273e-002 -3.447450e-002 0.9994 98.1123 34.0628)" fill="#8E9090" font-family="'ACaslonPro-Semibold'" font-size="11.0195px">L</text>
<text transform="matrix(0.987 0.2346 -0.2312 0.9729 108.5274 34.7346)" fill="#8E9090" font-family="'ACaslonPro-Semibold'" font-size="11.0195px">F</text>
<text transform="matrix(0.9376 0.3874 -0.3819 0.9242 118.4766 37.5598)" fill="#8E9090" font-family="'ACaslonPro-Semibold'" font-size="11.0195px"> </text>
<text transform="matrix(0.8648 0.5303 -0.5227 0.8525 123.7363 39.8294)" fill="#8E9090" font-family="'ACaslonPro-Semibold'" font-size="11.0195px">P</text>
<text transform="matrix(0.7322 0.7021 -0.6921 0.7218 132.2949 45.427)" fill="#8E9090" font-family="'ACaslonPro-Semibold'" font-size="11.0195px">R</text>
<text transform="matrix(0.546 0.855 -0.8428 0.5383 140.0947 53.2844)" fill="#8E9090" font-family="'ACaslonPro-Semibold'" font-size="11.0195px">O</text>
<text transform="matrix(0.2907 0.9719 -0.9581 0.2865 146.6455 64.1399)" fill="#8E9090" font-family="'ACaslonPro-Semibold'" font-size="11.0195px">M</text>
<text transform="matrix(1.681359e-002 1.0143 -0.9999 1.657406e-002 150.1758 77.9651)" fill="#8E9090" font-family="'ACaslonPro-Semibold'" font-size="11.0195px">O</text>
<text transform="matrix(-0.2356 0.9867 -0.9727 -0.2322 149.8789 90.6175)" fill="#8E9090" font-family="'ACaslonPro-Semibold'" font-size="11.0195px">T</text>
<text transform="matrix(-0.4264 0.9205 -0.9074 -0.4203 146.711 101.6233)" fill="#8E9090" font-family="'ACaslonPro-Semibold'" font-size="11.0195px">I</text>
<text transform="matrix(-0.6085 0.8117 -0.8002 -0.5998 143.4033 108.5628)" fill="#8E9090" font-family="'ACaslonPro-Semibold'" font-size="11.0195px">O</text>
<text transform="matrix(-0.79 0.6364 -0.6273 -0.7788 135.4473 118.4534)" fill="#8E9090" font-family="'ACaslonPro-Semibold'" font-size="11.0195px">N</text>
</svg>
