<?xml version="1.0" encoding="utf-8"?>
<!-- Generator: Adobe Illustrator 21.1.0, SVG Export Plug-In . SVG Version: 6.00 Build 0)  -->
<svg version="1.1" id="Layer_1" xmlns="http://www.w3.org/2000/svg" xmlns:xlink="http://www.w3.org/1999/xlink" x="0px" y="0px"
	 viewBox="0 0 25 25" style="enable-background:new 0 0 25 25;" xml:space="preserve">
<style type="text/css">
	.st0{fill:#FFFFFF;}
</style>
<path class="st0" d="M24,7C20.39,7,4.39,7,1,7c0-1.33,0-2.67,0-4c3.36,0,19.36,0,23,0C24,4.33,24,5.67,24,7z"/>
<path class="st0" d="M24,14c-3.61,0-19.61,0-23,0c0-1.33,0-2.67,0-4c3.36,0,19.36,0,23,0C24,11.33,24,12.67,24,14z"/>
<path class="st0" d="M24,21c-3.61,0-19.61,0-23,0c0-1.33,0-2.67,0-4c3.36,0,19.36,0,23,0C24,18.33,24,19.67,24,21z"/>
<g>
</g>
<g>
</g>
<g>
</g>
<g>
</g>
<g>
</g>
<g>
</g>
<g>
</g>
<g>
</g>
<g>
</g>
<g>
</g>
<g>
</g>
<g>
</g>
<g>
</g>
<g>
</g>
<g>
</g>
</svg>
